<svg xmlns="http://www.w3.org/2000/svg" xml:space="preserve" width="2000" height="140" data-id="lg_C1hKPbWZllu3xWXSkA" data-version="1" viewBox="0 0 2000 140"><g data-padding="20"><g transform="translate(10 2.5)scale(.96429)"><rect width="335.479" height="140.219" x="578.911" y="-70.26" fill="#ad79e1" paint-order="stroke" rx="19" ry="19" transform="translate(167.84 70.15)"/><rect width="233.762" height="140.219" x="629.77" y="-70.26" fill="#0099f2" paint-order="stroke" rx="19" ry="19" transform="translate(443.05 70.15)"/><rect width="514.553" height="111.87" x="489.375" y="-56.085" fill="none" rx="0" ry="0" transform="translate(279.19 70.68)"/><path fill="#fff" d="m806.161 33.7 16.13 47.43 8.22-28.52-5.94-18.91h-5.64v-1.88h30.69v1.88h-5.84l14.75 46.83 11.88-46.83h-10v-1.88h19.8v1.88h-6.54l-18.21 68.41h-8.81l-14.65-44.74-12.87 44.74h-8.62l-24.95-68.41h-4.65v-1.88h32.18v1.88Zm102.76 23.07q-3.66 0-6.44 4.75-2.77 4.76-2.77 11.29v26.53h7.03v1.78h-30.89v-1.78h5.45V55.78h-5.45V54h23.86v9.5q1.29-5.05 4.95-7.77t8.32-2.72q4.65 0 7.57 2.62 2.92 2.63 2.92 7.43t-2.18 7.37q-2.17 2.58-6.68 2.58-4.5 0-6.63-2.97t-.55-8.22h3.57q2.47-5.05-2.08-5.05m30.49-9.59q-5.25 0-7.47-2.67-2.23-2.68-2.23-6.64t2.42-6.53q2.43-2.58 7.38-2.58t7.52 2.33q2.58 2.33 2.58 6.63 0 4.31-2.48 6.88-2.47 2.58-7.72 2.58m-14.95 8.61v-1.78h24.26v45.34h5.54v1.78h-29.4v-1.78h5.44V55.79Zm36.73 31.19V55.79h-5.44v-1.78h5.44V41.24l18.41-4.56v17.33h12.87v1.78h-12.87v33.36q0 4.66.95 6.84.94 2.17 3.91 2.17t5.19-2.97q2.23-2.97 2.92-8.11l1.69.19q-.8 6.83-4.36 10.84t-11.78 4.01-12.57-3.26q-4.36-3.27-4.36-11.88m60.09 15.14q-12.77 0-19.15-6.58-6.39-6.58-6.39-18.31 0-11.74 7.18-17.97 7.18-6.24 18.26-6.24 22.48 0 21.59 22.57h-27.92v3.86q0 9.7 2.47 14.65 2.48 4.95 8.62 4.95 11.48 0 15.04-12.27l1.79.3q-1.88 7.12-6.78 11.08-4.91 3.96-14.71 3.96m-6.33-33.36v4.85h10.19v-4.85q0-8.02-.94-10.94t-3.76-2.92-4.16 3.12q-1.33 3.12-1.33 10.74m64.45-11.99q-3.67 0-6.44 4.75-2.77 4.76-2.77 11.29v26.53h7.03v1.78h-30.89v-1.78h5.45V55.78h-5.45V54h23.86v9.5q1.29-5.05 4.95-7.77t8.32-2.72q4.65 0 7.57 2.62 2.92 2.63 2.92 7.43t-2.18 7.37q-2.18 2.58-6.68 2.58-4.51 0-6.63-2.97-2.13-2.97-.55-8.22h3.57q2.47-5.05-2.08-5.05m14.95-28.1v-1.79h23.85v36.24q1.59-4.56 4.86-7.33 3.26-2.77 9.9-2.77 15.34 0 15.34 16.53v29.8h5.54v1.78h-28.01v-1.78h4.06V67.18q0-5.94-.8-7.68-.79-1.73-2.87-1.73-3.16 0-5.59 4.16t-2.43 10.1v27.32h4.26v1.78h-28.11v-1.78h5.44V28.67Zm116.91 70.68v1.78h-22.57l-1.09-7.22q-1.58 3.96-4.7 6.09-3.12 2.12-9.26 2.12-15.34 0-15.34-16.53v-29.8h-5.54v-1.78h23.95v33.96q0 5.94.85 7.82.84 1.88 3.36 1.88 2.53 0 4.51-3.07t1.98-8.51v-30.3h-4.56v-1.78h22.97v45.34Zm38.12-24.85q0-10.19-.99-13.71-.99-3.51-3.86-3.51t-5.15 3.56-2.28 9.8v18.42q0 4.25 1.74 7.22 1.73 2.97 4.95 2.97 3.21 0 4.4-4.35 1.19-4.36 1.19-15.25Zm-36.14-47.62h23.86v34.65q3.77-8.51 12.87-8.51 18.52 0 18.52 24.65 0 12.57-5.1 18.51t-15.3 5.94q-5.15 0-7.87-1.58t-3.71-5.25l-.69 5.84h-22.58v-1.78h5.45V28.67h-5.45Z"/></g><path fill="transparent" stroke="transparent" d="M720 0h560v140H720z"/></g></svg>